<svg width="73" height="73" viewBox="0 0 73 73" fill="none" xmlns="http://www.w3.org/2000/svg">
<path d="M54.5 50.2942L63.5 6.79419C63.5 6.79419 47.75 9.79419 47.75 15.7942C47.75 19.5442 53.75 21.7942 51.5 24.0442C49.25 26.2942 41 28.5442 41 34.5442C41 38.2942 43.46 41.0842 41 43.5442C38.75 45.7942 36.5 44.6152 32.75 43.5442C28.55 42.3442 20 41.2942 17 42.0442C14 42.7942 11 44.2942 11 48.7942C11 51.2692 12.5 54.0442 16.25 54.7942C20 55.5442 24.5 51.7942 30.5 51.7942C36.5 51.7942 44 56.2942 48.5 56.2942C53 56.2942 54.5 50.2942 54.5 50.2942Z" stroke="#48A054" stroke-width="4" stroke-linejoin="round"/>
<path d="M17 54.7942L12.5 66.7942H62L53 54.7942" stroke="#48A054" stroke-width="4" stroke-linejoin="round"/>
</svg>
