<svg width="72" height="72" viewBox="0 0 72 72" fill="none" xmlns="http://www.w3.org/2000/svg">
<path d="M33.7099 7.39168C34.0748 7.28149 34.4655 7.29173 34.8242 7.42088C35.1829 7.55003 35.4905 7.79123 35.7014 8.10878L41.8181 17.282L50.9913 11.1653C51.2893 10.9673 51.6402 10.8639 51.998 10.8688C52.3558 10.8737 52.7037 10.9866 52.9962 11.1927C53.2887 11.3988 53.5121 11.6886 53.637 12.0239C53.762 12.3592 53.7827 12.7244 53.6964 13.0717L50.6966 25.0671H62.6246C62.9761 25.0665 63.3199 25.1703 63.6124 25.3653C63.9049 25.5603 64.1329 25.8377 64.2675 26.1624C64.4021 26.4872 64.4373 26.8445 64.3685 27.1893C64.2998 27.534 64.1302 27.8506 63.8813 28.0988L54.7578 37.2152L63.608 43.1153C63.9248 43.3266 64.1653 43.6342 64.2939 43.9926C64.4226 44.3511 64.4325 44.7414 64.3223 45.1059C64.212 45.4704 63.9875 45.7898 63.6818 46.017C63.3761 46.2441 63.0054 46.3668 62.6246 46.3671H51.9746C51.5039 46.3671 51.0524 46.1801 50.7195 45.8472C50.3866 45.5144 50.1996 45.0629 50.1996 44.5921C50.1996 44.1214 50.3866 43.6699 50.7195 43.337C51.0524 43.0041 51.5039 42.8171 51.9746 42.8171H56.7636L50.9913 38.9689C50.7723 38.8235 50.5884 38.6313 50.4528 38.4061C50.3171 38.181 50.2332 37.9285 50.2071 37.6669C50.1809 37.4054 50.2132 37.1413 50.3015 36.8937C50.3899 36.6462 50.5321 36.4213 50.7179 36.2354L58.3398 28.6171H48.4246C48.155 28.6171 47.8889 28.5556 47.6466 28.4373C47.4043 28.3191 47.1921 28.1472 47.0262 27.9347C46.8602 27.7222 46.7449 27.4747 46.6888 27.2109C46.6328 26.9472 46.6376 26.6742 46.7029 26.4126L49.1382 16.6643L42.308 21.2189C41.9162 21.4795 41.4371 21.5739 40.9757 21.4814C40.5144 21.3889 40.1087 21.117 39.8478 20.7255L35.9996 14.9532V19.7421C35.9996 20.2129 35.8126 20.6644 35.4797 20.9972C35.1469 21.3301 34.6954 21.5171 34.2246 21.5171C33.7539 21.5171 33.3024 21.3301 32.9695 20.9972C32.6366 20.6644 32.4496 20.2129 32.4496 19.7421V9.09213C32.4492 8.71094 32.5716 8.33976 32.7986 8.03351C33.0255 7.72727 33.3451 7.50222 33.7099 7.39168ZM17.3621 51.6921C18.0682 51.6921 18.7455 51.4116 19.2448 50.9123C19.7441 50.413 20.0246 49.7358 20.0246 49.0296C20.0246 48.3235 19.7441 47.6463 19.2448 47.147C18.7455 46.6476 18.0682 46.3671 17.3621 46.3671C16.656 46.3671 15.9788 46.6476 15.4794 47.147C14.9801 47.6463 14.6996 48.3235 14.6996 49.0296C14.6996 49.7358 14.9801 50.413 15.4794 50.9123C15.9788 51.4116 16.656 51.6921 17.3621 51.6921ZM39.5496 49.0296C39.5496 49.7358 39.2691 50.413 38.7698 50.9123C38.2705 51.4116 37.5933 51.6921 36.8871 51.6921C36.181 51.6921 35.5038 51.4116 35.0044 50.9123C34.5051 50.413 34.2246 49.7358 34.2246 49.0296C34.2246 48.3235 34.5051 47.6463 35.0044 47.147C35.5038 46.6476 36.181 46.3671 36.8871 46.3671C37.5933 46.3671 38.2705 46.6476 38.7698 47.147C39.2691 47.6463 39.5496 48.3235 39.5496 49.0296ZM43.0996 39.2671C45.2545 40.8859 46.6496 43.4632 46.6496 46.3671V60.5671C46.6496 61.5086 46.2756 62.4116 45.6098 63.0774C44.9441 63.7431 44.0411 64.1171 43.0996 64.1171C42.1581 64.1171 41.2551 63.7431 40.5894 63.0774C39.9236 62.4116 39.5496 61.5086 39.5496 60.5671V58.7921H14.6996V60.5671C14.6996 61.5086 14.3256 62.4116 13.6598 63.0774C12.9941 63.7431 12.0911 64.1171 11.1496 64.1171C10.2081 64.1171 9.30513 63.7431 8.63938 63.0774C7.97363 62.4116 7.59961 61.5086 7.59961 60.5671V46.3671C7.59961 43.4632 8.99476 40.8859 11.1496 39.2671H9.37461C8.90385 39.2671 8.45237 39.0801 8.1195 38.7472C7.78662 38.4144 7.59961 37.9629 7.59961 37.4921C7.59961 37.0214 7.78662 36.5699 8.1195 36.237C8.45237 35.9041 8.90385 35.7171 9.37461 35.7171H11.7176L12.2075 32.7742C12.4839 31.117 13.339 29.6115 14.6208 28.5253C15.9026 27.4392 17.528 26.8428 19.2081 26.8421H35.034C36.7147 26.8419 38.341 27.4379 39.6235 28.5242C40.9061 29.6104 41.7617 31.1164 42.0382 32.7742L42.5281 35.7171H44.8711C45.3418 35.7171 45.7933 35.9041 46.1262 36.237C46.4591 36.5699 46.6461 37.0214 46.6461 37.4921C46.6461 37.9629 46.4591 38.4144 46.1262 38.7472C45.7933 39.0801 45.3418 39.2671 44.8711 39.2671H43.0996ZM19.2081 30.3921C18.3678 30.3925 17.5549 30.691 16.9139 31.2344C16.273 31.7778 15.8456 32.531 15.7078 33.3599L14.9978 37.6128C15.4806 37.5347 15.9705 37.4921 16.4746 37.4921H37.7746C38.2787 37.4921 38.7686 37.5347 39.2479 37.6128L38.5379 33.3599C38.4002 32.5316 37.9733 31.7789 37.3331 31.2355C36.6929 30.6922 35.8808 30.3934 35.0411 30.3921H19.2081ZM11.1496 46.3671V55.2421H43.0996V46.3671C43.0996 44.9548 42.5386 43.6004 41.54 42.6018C40.5413 41.6032 39.1869 41.0421 37.7746 41.0421H16.4746C15.0623 41.0421 13.7079 41.6032 12.7093 42.6018C11.7106 43.6004 11.1496 44.9548 11.1496 46.3671Z" fill="#48A054"/>
</svg>
