<svg width="72" height="73" viewBox="0 0 72 73" fill="none" xmlns="http://www.w3.org/2000/svg">
<g clip-path="url(#clip0_734_7288)">
<path d="M67.5 45.7942V72.7942H36V45.7942H40.5C40.5 44.0129 40.6992 42.3137 41.0977 40.6965C41.4961 39.0793 42.1523 37.6379 43.0664 36.3723C43.9805 35.1067 45.1406 34.1223 46.5469 33.4192C47.9531 32.7161 49.6875 32.3411 51.75 32.2942C53.7891 32.2942 55.5117 32.6575 56.918 33.384C58.3242 34.1106 59.4844 35.1067 60.3984 36.3723C61.3125 37.6379 61.9688 39.0676 62.3672 40.6614C62.7656 42.2551 62.9766 43.9661 63 45.7942H67.5ZM45 45.7942H58.5V43.5442C58.5 42.6067 58.3242 41.7278 57.9727 40.9075C57.6211 40.0872 57.1406 39.3723 56.5312 38.7629C55.9219 38.1536 55.207 37.6731 54.3867 37.3215C53.5664 36.97 52.6875 36.7942 51.75 36.7942C50.8125 36.7942 49.9336 36.97 49.1133 37.3215C48.293 37.6731 47.5781 38.1536 46.9688 38.7629C46.3594 39.3723 45.8789 40.0872 45.5273 40.9075C45.1758 41.7278 45 42.6067 45 43.5442V45.7942ZM63 50.2942H40.5V68.2942H63V50.2942ZM13.5 68.2942H31.5V72.7942H9V11.095L19.3008 0.794189H63V31.0286C62.3203 30.4192 61.6055 29.8684 60.8555 29.3762C60.1055 28.884 59.3203 28.4504 58.5 28.0754V5.29419H21.1992L13.5 12.9934V68.2942Z" fill="#48A054"/>
</g>
<defs>
<clipPath id="clip0_734_7288">
<rect width="72" height="72" fill="white" transform="translate(0 0.794189)"/>
</clipPath>
</defs>
</svg>
