<svg width="72" height="72" viewBox="0 0 72 72" fill="none" xmlns="http://www.w3.org/2000/svg">
<g clip-path="url(#clip0_734_7236)">
<path d="M67.0625 40.5137V52.7168C67.0625 56.0449 65.0656 58.9293 61.9594 60.4824L58.1875 62.2574L54.4156 60.4824C51.3094 59.1512 49.3125 56.0449 49.3125 52.7168V40.5137H67.0625ZM71.5 36.0762H44.875V52.7168C44.875 57.598 47.7594 62.2574 52.4187 64.4762L58.1875 67.1387L63.9563 64.4762C68.6156 62.2574 71.5 57.8199 71.5 52.7168V36.0762Z" fill="#48A054"/>
<path d="M36 56.0449H17.1406C8.04375 56.0449 0.5 48.5012 0.5 39.4043C0.5 31.1949 6.49062 24.5387 14.2562 22.9855C16.2531 12.5574 25.35 5.01367 36 5.01367C48.2031 5.01367 58.1875 14.998 58.1875 27.2012H53.75C53.75 17.4387 45.7625 9.45117 36 9.45117C26.9031 9.45117 19.3594 16.3293 18.25 25.2043V27.2012H16.2531C9.81875 27.6449 4.9375 32.9699 4.9375 39.4043C4.9375 46.0605 10.4844 51.6074 17.1406 51.6074H36V56.0449Z" fill="#48A054"/>
</g>
<defs>
<clipPath id="clip0_734_7236">
<rect width="71" height="71" fill="white" transform="translate(0.5 0.576172)"/>
</clipPath>
</defs>
</svg>
