<svg width="72" height="72" viewBox="0 0 72 72" fill="none" xmlns="http://www.w3.org/2000/svg">
<path d="M62.625 36.4351V49.7476H9.375V14.2476H24.9062V9.81006H9.375C8.1981 9.81006 7.06941 10.2776 6.23721 11.1098C5.40502 11.942 4.9375 13.0707 4.9375 14.2476V49.7476C4.9375 50.9245 5.40502 52.0532 6.23721 52.8853C7.06941 53.7175 8.1981 54.1851 9.375 54.1851H27.125V63.0601H18.25V67.4976H53.75V63.0601H44.875V54.1851H62.625C63.8019 54.1851 64.9306 53.7175 65.7628 52.8853C66.595 52.0532 67.0625 50.9245 67.0625 49.7476V36.4351H62.625ZM40.4375 63.0601H31.5625V54.1851H40.4375V63.0601Z" fill="#48A054"/>
<path d="M40.4375 40.8726H40.4153C39.9372 40.8676 39.4736 40.7083 39.0934 40.4184C38.7131 40.1286 38.4367 39.7236 38.3053 39.264L34.3271 25.3413H24.9062V20.9038H36C36.4823 20.9035 36.9515 21.0604 37.3366 21.3507C37.7217 21.6409 38.0018 22.0487 38.1344 22.5124L40.5174 30.8549L47.1936 9.15553C47.3376 8.70523 47.6199 8.31175 48.0002 8.03096C48.3806 7.75017 48.8398 7.59634 49.3125 7.59131C49.78 7.58428 50.2373 7.72812 50.6166 8.00149C50.9959 8.27487 51.2769 8.66322 51.4181 9.10894L55.3475 20.9038H67.0625V25.3413H53.75C53.2841 25.3414 52.8301 25.1949 52.4521 24.9225C52.0742 24.6501 51.7916 24.2657 51.6444 23.8237L49.3968 17.0787L42.5586 39.3061C42.4191 39.7598 42.1378 40.1567 41.756 40.4386C41.3742 40.7206 40.9121 40.8727 40.4375 40.8726Z" fill="#48A054"/>
</svg>
