<svg width="72" height="73" viewBox="0 0 72 73" fill="none" xmlns="http://www.w3.org/2000/svg">
<path d="M9.85804 56.5771C5.40115 50.8096 2.98859 43.7239 3.00004 36.4351C3.00004 18.2101 17.775 3.43506 36 3.43506C54.225 3.43506 69 18.2101 69 36.4351C69 44.0191 66.4425 51.0046 62.142 56.5771" stroke="#48A054" stroke-width="4" stroke-linecap="round" stroke-linejoin="round"/>
<path d="M18.4545 47.9806C16.1945 44.5547 14.9931 40.5392 15 36.4351C15 24.8371 24.402 15.4351 36 15.4351C47.598 15.4351 57 24.8371 57 36.4351C57 40.6996 55.7295 44.6671 53.5455 47.9806" stroke="#48A054" stroke-width="4" stroke-linecap="round" stroke-linejoin="round"/>
<path d="M36 45.4351L60 69.4351H12L36 45.4351Z" stroke="#48A054" stroke-width="4" stroke-linecap="round" stroke-linejoin="round"/>
</svg>
