<svg width="71" height="72" viewBox="0 0 71 72" fill="none" xmlns="http://www.w3.org/2000/svg">
<g clip-path="url(#clip0_734_7243)">
<path d="M48.7778 28.0901C47.9689 28.5292 47.1947 29.003 46.4551 29.5115C45.7155 30.0199 45.0221 30.5977 44.375 31.2449V30.6902L35.5 25.6287L26.625 30.6902V40.7439L35.5 45.8054L38.8975 43.864C38.8975 43.9796 38.8859 44.0951 38.8628 44.2107C38.8397 44.3263 38.8281 44.4534 38.8281 44.592C38.8281 45.2854 38.8743 45.9788 38.9668 46.6721C39.0592 47.3655 39.1979 48.0473 39.3828 48.7175L35.5 50.9363L22.1875 43.3093V28.1248L35.5 20.4978L48.7778 28.0901ZM8.875 20.5325V50.9016L28.9478 62.342C28.37 62.943 27.8499 63.4861 27.3877 63.9714C26.9255 64.4568 26.521 65.0924 26.1743 65.8782L4.4375 53.467V17.967L35.5 0.217041L66.5625 17.967V28.0554C65.1527 27.2696 63.6735 26.6918 62.125 26.322V20.5325L35.5 5.31323L8.875 20.5325ZM57.6875 31.2795C59.5133 31.2795 61.2352 31.6262 62.853 32.3196C64.4709 33.0129 65.8807 33.9605 67.0825 35.1624C68.2843 36.3642 69.2435 37.7856 69.96 39.4265C70.6764 41.0675 71.0231 42.7893 71 44.592C71 46.441 70.6533 48.1628 69.96 49.7576C69.2666 51.3523 68.319 52.7621 67.1172 53.9871C65.9154 55.212 64.494 56.1711 62.853 56.8645C61.2121 57.5579 59.4902 57.9045 57.6875 57.9045C56.3008 57.9045 54.9487 57.6965 53.6313 57.2805C52.314 56.8645 51.1006 56.252 49.9912 55.4431L34.8413 70.5583C34.4022 70.9975 33.8822 71.217 33.2812 71.217C32.6803 71.217 32.1603 70.9975 31.7212 70.5583C31.2821 70.1192 31.0625 69.5992 31.0625 68.9983C31.0625 68.3974 31.2821 67.8774 31.7212 67.4382L46.8364 52.2883C46.0275 51.179 45.415 49.9656 44.999 48.6482C44.583 47.3308 44.375 45.9788 44.375 44.592C44.375 42.7662 44.7217 41.0444 45.415 39.4265C46.1084 37.8087 47.056 36.3988 48.2578 35.197C49.4596 33.9952 50.8695 33.0361 52.4873 32.3196C54.1051 31.6031 55.8385 31.2564 57.6875 31.2795ZM57.6875 53.467C58.9124 53.467 60.0565 53.2359 61.1196 52.7737C62.1828 52.3114 63.1304 51.6759 63.9624 50.8669C64.7944 50.058 65.43 49.122 65.8691 48.0588C66.3083 46.9957 66.5394 45.8401 66.5625 44.592C66.5625 43.3671 66.3314 42.2231 65.8691 41.1599C65.4069 40.0968 64.7713 39.1492 63.9624 38.3171C63.1535 37.4851 62.2174 36.8495 61.1543 36.4104C60.0911 35.9713 58.9355 35.7402 57.6875 35.717C56.4626 35.717 55.3185 35.9482 54.2554 36.4104C53.1922 36.8726 52.2446 37.5082 51.4126 38.3171C50.5806 39.1261 49.945 40.0621 49.5059 41.1252C49.0667 42.1884 48.8356 43.344 48.8125 44.592C48.8125 45.817 49.0436 46.961 49.5059 48.0242C49.9681 49.0873 50.6037 50.0349 51.4126 50.8669C52.2215 51.699 53.1576 52.3346 54.2207 52.7737C55.2839 53.2128 56.4395 53.4439 57.6875 53.467Z" fill="#48A054"/>
</g>
<defs>
<clipPath id="clip0_734_7243">
<rect width="71" height="71" fill="white" transform="translate(0 0.217041)"/>
</clipPath>
</defs>
</svg>
