<svg width="72" height="73" viewBox="0 0 72 73" fill="none" xmlns="http://www.w3.org/2000/svg">
<path d="M65.025 27.1887C63.4438 23.446 61.1514 20.0457 58.275 17.1762C55.4055 14.2997 52.0052 12.0074 48.2625 10.4262C44.3742 8.78086 40.2539 7.95117 36 7.95117C31.7461 7.95117 27.6258 8.78086 23.7375 10.4262C19.9948 12.0074 16.5945 14.2997 13.725 17.1762C10.8486 20.0457 8.55622 23.446 6.975 27.1887C5.32969 31.077 4.5 35.1973 4.5 39.4512C4.5 48.7816 8.59922 57.5707 15.743 63.5754L15.8625 63.6738C16.2703 64.0113 16.7836 64.2012 17.3109 64.2012H54.6961C55.2234 64.2012 55.7367 64.0113 56.1445 63.6738L56.2641 63.5754C63.4008 57.5707 67.5 48.7816 67.5 39.4512C67.5 35.1973 66.6633 31.077 65.025 27.1887ZM53.5359 58.8574H18.4641C15.7472 56.4077 13.5757 53.4141 12.0906 50.0708C10.6056 46.7276 9.84003 43.1094 9.84375 39.4512C9.84375 32.4621 12.5648 25.8949 17.5078 20.959C22.4508 16.016 29.018 13.2949 36 13.2949C42.9891 13.2949 49.5563 16.016 54.4922 20.959C59.4352 25.902 62.1562 32.4691 62.1562 39.4512C62.1562 46.8762 59.0273 53.9004 53.5359 58.8574ZM43.8398 29.7129C43.7341 29.6082 43.5914 29.5495 43.4426 29.5495C43.2938 29.5495 43.151 29.6082 43.0453 29.7129L37.1039 35.6543C35.7891 35.3027 34.3336 35.6402 33.3 36.6738C32.9339 37.0392 32.6435 37.4732 32.4453 37.951C32.2471 38.4288 32.1451 38.941 32.1451 39.4582C32.1451 39.9754 32.2471 40.4876 32.4453 40.9654C32.6435 41.4432 32.9339 41.8772 33.3 42.2426C33.6654 42.6087 34.0994 42.8991 34.5772 43.0973C35.055 43.2954 35.5671 43.3974 36.0844 43.3974C36.6016 43.3974 37.1138 43.2954 37.5916 43.0973C38.0693 42.8991 38.5033 42.6087 38.8687 42.2426C39.3584 41.7544 39.7106 41.1455 39.8896 40.4776C40.0686 39.8097 40.0682 39.1064 39.8883 38.4387L45.8297 32.4973C46.0477 32.2793 46.0477 31.9207 45.8297 31.7027L43.8398 29.7129ZM34.4531 22.5762H37.5469C37.8563 22.5762 38.1094 22.323 38.1094 22.0137V16.3887C38.1094 16.0793 37.8563 15.8262 37.5469 15.8262H34.4531C34.1437 15.8262 33.8906 16.0793 33.8906 16.3887V22.0137C33.8906 22.323 34.1437 22.5762 34.4531 22.5762ZM52.7344 37.9043V40.998C52.7344 41.3074 52.9875 41.5605 53.2969 41.5605H58.9219C59.2313 41.5605 59.4844 41.3074 59.4844 40.998V37.9043C59.4844 37.5949 59.2313 37.3418 58.9219 37.3418H53.2969C52.9875 37.3418 52.7344 37.5949 52.7344 37.9043ZM53.6273 24.0387L51.4406 21.852C51.3349 21.7473 51.1921 21.6885 51.0434 21.6885C50.8946 21.6885 50.7518 21.7473 50.6461 21.852L46.6664 25.8316C46.5617 25.9374 46.503 26.0801 46.503 26.2289C46.503 26.3777 46.5617 26.5205 46.6664 26.6262L48.8531 28.8129C49.0711 29.0309 49.4297 29.0309 49.6477 28.8129L53.6273 24.8332C53.8453 24.6152 53.8453 24.2566 53.6273 24.0387ZM21.382 21.852C21.2763 21.7473 21.1335 21.6885 20.9848 21.6885C20.836 21.6885 20.6932 21.7473 20.5875 21.852L18.4008 24.0387C18.2961 24.1444 18.2374 24.2872 18.2374 24.4359C18.2374 24.5847 18.2961 24.7275 18.4008 24.8332L22.3805 28.8129C22.5984 29.0309 22.957 29.0309 23.175 28.8129L25.3617 26.6262C25.5797 26.4082 25.5797 26.0496 25.3617 25.8316L21.382 21.852ZM18.4219 37.3418H12.7969C12.4875 37.3418 12.2344 37.5949 12.2344 37.9043V40.998C12.2344 41.3074 12.4875 41.5605 12.7969 41.5605H18.4219C18.7312 41.5605 18.9844 41.3074 18.9844 40.998V37.9043C18.9844 37.5949 18.7312 37.3418 18.4219 37.3418Z" fill="#48A054"/>
</svg>
